# xmcd
#
# Track frame offsets:
#	150
#	14018
#	25740
#	37525
#	49348
#	68113
#	77825
#	91645
#	103738
#	120375
#
# Disc length: 1790 seconds
#
# Revision: 3
# Processed by: cddbd v1.4PL0 Copyright (c) Steve Scherf et al.
# Submitted via: MusicWizard 6.0.0
#
DISCID=6f06fc0a
DTITLE=Johnny Cash - The Ultimate Johnny Cash/ Bransound Vol. 6
DYEAR=1993
DGENRE=Country
TTITLE0=Don't Take Your Guns To Town
TTITLE1=I Walk The Line
TTITLE2=I Still Miss Someone
TTITLE3=Ring Of Fire
TTITLE4=Sunday Morning Coming Down
TTITLE5=What Do I Care
TTITLE6=It Ain't Me, Babe
TTITLE7=I'm So Lonesome I Could Cry
TTITLE8=The City Of New Orleans
TTITLE9=Orange Blossom Special
EXTD=(c)1993 Sony Music Entertainment USA - Bransounds\nupc 780915571320\nalso released as "Giant 
EXTD=Hits" on Sony Music Special Products\nupc 7989157132
EXTT0=
EXTT1=
EXTT2=
EXTT3=
EXTT4=
EXTT5=
EXTT6=
EXTT7=
EXTT8=
EXTT9=
PLAYORDER=
